<?xml version="1.0" encoding="UTF-8" standalone="no"?>
<svg width="195px" height="38px" viewBox="0 0 195 38" version="1.1" xmlns="http://www.w3.org/2000/svg" xmlns:xlink="http://www.w3.org/1999/xlink" xmlns:sketch="http://www.bohemiancoding.com/sketch/ns">
    <!-- Generator: Sketch 3.0.4 (8053) - http://www.bohemiancoding.com/sketch -->
    <title>logo</title>
    <desc>Created with Sketch.</desc>
    <defs></defs>
    <g id="Page-1" stroke="none" stroke-width="1" fill="none" fill-rule="evenodd" sketch:type="MSPage">
        <g id="logo" sketch:type="MSLayerGroup" transform="translate(0.000000, 0.333803)" fill="#2B2B2B">
            <path d="M97.9501655,36.5245829 C108.153917,36.5245829 114.940375,28.2116172 114.940375,18.9263748 L114.940375,18.8291471 C114.940375,9.54390469 108.250179,1.32816665 98.0464273,1.32816665 C87.8426756,1.32816665 81.0562181,9.64113236 81.0562181,18.9263748 L81.0562181,19.0236024 C81.0562181,28.3088448 87.7464138,36.5245829 97.9501655,36.5245829 C97.9501655,36.5245829 87.7464138,36.5245829 97.9501655,36.5245829 Z M98.2128872,34.2002912 C89.8237826,34.2002912 83.713799,27.3149067 83.713799,18.9263748 L83.713799,18.8293975 C83.713799,10.4408656 89.7267988,3.65245829 98.1159033,3.65245829 C106.505008,3.65245829 112.614991,10.5378429 112.614991,18.9263748 L112.614991,19.023352 C112.614991,27.4118839 106.601992,34.2002912 98.2128872,34.2002912 Z" id="Text" sketch:type="MSShapeGroup"></path>
            <path d="M41.4088323,34.8643745 C42.0880679,34.8643745 42.6217531,34.3330141 42.6217531,33.6567371 L42.6217531,4.52852301 L65.9583502,33.9948756 C66.3464848,34.4779306 66.7346195,34.8160691 67.2197878,34.8160691 L67.4138552,34.8160691 C67.9960572,34.8160691 68.4327087,34.3330141 68.4327087,33.7533481 L68.4327087,1.87172073 C68.4327087,1.19544378 67.8990235,0.664083325 67.2197878,0.664083325 C66.5405522,0.664083325 66.006867,1.19544378 66.006867,1.87172073 L66.006867,30.3719634 L43.1069214,1.43697126 C42.7673036,1.0022218 42.3791689,0.712388821 41.8454838,0.712388821 L41.4573491,0.712388821 C40.7781134,0.712388821 40.1959114,1.29205477 40.1959114,1.96833172 L40.1959114,33.6567371 C40.1959114,34.3330141 40.7295966,34.8643745 41.4088323,34.8643745 Z" id="N" sketch:type="MSShapeGroup" transform="translate(54.314310, 17.764229) scale(-1, 1) translate(-54.314310, -17.764229) "></path>
            <path d="M169.350281,34.5323329 C170.027821,34.5323329 170.608569,33.9526669 170.608569,33.27639 L170.608569,22.0752843 L175.195791,18.4621595 L192.725402,34.0492779 C192.918985,34.2908054 193.257755,34.5323329 193.693316,34.5323329 C194.370856,34.5323329 195,33.9043614 195,33.2280845 C195,32.8416405 194.854813,32.600113 194.612834,32.3102801 L177.026074,16.8673375 L193.741712,2.45748349 C193.98369,2.21595601 194.128877,1.92612303 194.128877,1.58798456 C194.128877,0.960013111 193.499733,0.332041662 192.870589,0.332041662 C192.483424,0.332041662 192.19305,0.525263647 191.999467,0.718485631 L170.608569,18.8946003 L170.608569,1.58798456 C170.608569,0.911707615 170.027821,0.332041662 169.350281,0.332041662 C168.672742,0.332041662 168.091993,0.911707615 168.091993,1.58798456 L168.091993,33.27639 C168.091993,33.9526669 168.672742,34.5323329 169.350281,34.5323329 Z" id="K" sketch:type="MSShapeGroup"></path>
            <path d="M1.25828809,34.8643745 C1.93582783,34.8643745 2.51657618,34.2847086 2.51657618,33.6084316 L2.51657612,22.407326 L7.10379786,18.7942012 L24.6334091,34.3813196 C24.8269919,34.6228471 25.1657618,34.8643745 25.601323,34.8643745 C26.2788628,34.8643745 26.9080068,34.2364031 26.9080068,33.5601262 C26.9080068,33.1736822 26.7628197,32.9321547 26.5208412,32.6423217 L8.93408053,17.1993791 L25.6497187,2.78952515 C25.8916972,2.54799767 26.0368843,2.2581647 26.0368843,1.92002622 C26.0368843,1.29205477 25.4077402,0.664083325 24.7785962,0.664083325 C24.3914306,0.664083325 24.1010565,0.857305309 23.9074737,1.05052729 L2.51657618,19.2266419 L2.51657618,1.92002622 C2.51657618,1.24374928 1.93582783,0.664083325 1.25828809,0.664083325 C0.580748349,0.664083325 0,1.24374928 0,1.92002622 L0,33.6084316 C0,34.2847086 0.580748349,34.8643745 1.25828809,34.8643745 Z" id="K" sketch:type="MSShapeGroup"></path>
            <path d="M140.517986,35.1964162 C146.21349,35.1964162 149.961814,33.1060213 153.41806,29.8975082 C153.612778,29.7030529 153.807496,29.4113699 153.807496,29.0224592 C153.807496,28.3904794 153.223341,27.8071134 152.590508,27.8071134 C152.201072,27.8071134 151.908994,28.0015687 151.714276,28.196024 C148.501428,31.2586956 145.2399,32.911566 140.615345,32.911566 C132.485865,32.911566 126.206207,26.2028568 126.206207,17.5982081 L126.206207,17.5009804 C126.206207,8.94494556 132.388506,2.28485022 140.566666,2.28485022 C145.337259,2.28485022 148.598787,4.13217594 151.422199,6.70870917 C151.616917,6.90316451 151.957674,7.04900601 152.298431,7.04900601 C152.979944,7.04900601 153.612778,6.46563999 153.612778,5.78504631 C153.612778,5.3475218 153.36938,5.00722496 153.125982,4.76415579 C149.815775,1.94455338 146.26217,0 140.615345,0 C130.782082,0 123.577513,7.97266887 123.577513,17.5982081 L123.577513,17.6954358 C123.577513,27.4668165 130.782082,35.1964162 140.517986,35.1964162 C140.517986,35.1964162 130.782082,35.1964162 140.517986,35.1964162 L140.517986,35.1964162 L140.517986,35.1964162 Z" id="Text" sketch:type="MSShapeGroup"></path>
        </g>
    </g>
</svg>