<?xml version="1.0" encoding="utf-8"?>
<!-- Generator: Adobe Illustrator 16.0.0, SVG Export Plug-In . SVG Version: 6.00 Build 0)  -->
<!DOCTYPE svg PUBLIC "-//W3C//DTD SVG 1.1//EN" "http://www.w3.org/Graphics/SVG/1.1/DTD/svg11.dtd">
<svg version="1.1" id="Layer_1" xmlns:sketch="http://www.bohemiancoding.com/sketch/ns"
	 xmlns="http://www.w3.org/2000/svg" xmlns:xlink="http://www.w3.org/1999/xlink" x="0px" y="0px" width="23px" height="20px"
	 viewBox="0 0 23 20" enable-background="new 0 0 23 20" xml:space="preserve">
<title>refresh</title>
<desc>Created with Sketch.</desc>
<path d="M21.826,7.522c-0.225-0.161-0.537-0.112-0.699,0.113l-1.6,2.217c-0.225-4.916-4.282-8.851-9.254-8.851
	C5.16,1.001,1,5.161,1,10.275c0.001,5.114,4.161,9.273,9.274,9.273c4.635,0,8.476-3.42,9.158-7.866
	c0.006-0.008,0.017-0.011,0.021-0.02l2.484-3.443C22.1,7.996,22.049,7.684,21.826,7.522z M15.527,8.497l2.937,2.899
	c-0.552,4.031-4.01,7.151-8.19,7.151C5.711,18.549,2,14.836,2,10.274S5.711,2,10.273,2c4.493,0,8.152,3.601,8.265,8.066l-2.308-2.28
	c-0.195-0.194-0.515-0.191-0.707,0.004C15.33,7.987,15.332,8.303,15.527,8.497z"/>
</svg>
